{"title":"Bullish.2013.HDRip.x264.AC3-MenaceIISociety","uid":12227916,"size":843355157,"categoryP":"video","categoryS":"movies","magnet":"?xt=urn:btih:0f39ac72165ceba81aec474ca6243980fb67d190&amp;dn=Bullish.2013.HDRip.x264.AC3-MenaceIISociety&amp;tr=udp%3A%2F%2Ftracker.openbittorrent.com%3A80&amp;tr=udp%3A%2F%2Fopen.demonii.com%3A1337&amp;tr=udp%3A%2F%2Ftracker.coppersurfer.tk%3A6969&amp;tr=udp%3A%2F%2Fexodus.desync.com%3A6969","seeders":0,"leechers":4,"uploader":"TvTeam","files":4,"time":1439505454,"description":"------------------------------------------------------------------------\n\n &lt;a href=&quot; https://www.torrenting.com&quot; rel=&quot;nofollow&quot; target=&quot;_NEW&quot;&gt; https://www.torrenting.com&lt;/a&gt;\n\nSign up is OPEN - for time being. Come and have fun\n\n.......................................................................................................................[center][img]http://s28.postimg.org/xy770kh6l/image.jpg[/img]\n\nBullish.2013.HDRip.x264.AC3-MenaceIISociety &lt;a href=&quot;\nhttp://www.imdb.com/title/tt2371822/&quot; rel=&quot;nofollow&quot; target=&quot;_NEW&quot;&gt;\nhttp://www.imdb.com/title/tt2371822/&lt;/a&gt;\n\nSource: WEBDL [THANKS]\n\nGeneral\nComplete name                            : Bullish.2013.HDRip.x264.AC3-MenaceIISociety.mkv\nFormat                                   : Matroska\nFormat version                           : Version 2\nFile size                                : 774 MiB\nDuration                                 : 1h 44mn\nOverall bit rate                         : 1 030 Kbps\nEncoded date                             : UTC 2015-08-13 20:05:38\nWriting application                      : mkvmerge v8.2.0 ('World of Adventure') 32bit\nWriting library                          : libebml v1.3.1 + libmatroska v1.4.2\n\nVideo\nID                                       : 1\nFormat                                   : AVC\nFormat/Info                              : Advanced Video Codec\nFormat profile                           : Main@L4\nFormat settings, CABAC                   : Yes\nFormat settings, ReFrames                : 4 frames\nCodec ID                                 : V_MPEG4/ISO/AVC\nDuration                                 : 1h 44mn\nBit rate                                 : 626 Kbps\nWidth                                    : 720 pixels\nHeight                                   : 404 pixels\nDisplay aspect ratio                     : 16:9\nOriginal display aspect ratio            : 16:9\nFrame rate mode                          : Constant\nFrame rate                               : 23.976 fps\nColor space                              : YUV\nChroma subsampling                       : 4:2:0\nBit depth                                : 8 bits\nScan type                                : Progressive\nBits/(Pixel*Frame)                       : 0.090\nStream size                              : 470 MiB (61%)\nWriting library                          : x264 core 142 r2479 dd79a61\n\nAudio\nID                                       : 2\nFormat                                   : AC-3\nFormat/Info                              : Audio Coding 3\nMode extension                           : CM (complete main)\nFormat settings, Endianness              : Big\nCodec ID                                 : A_AC3\nDuration                                 : 1h 44mn\nBit rate mode                            : Constant\nBit rate                                 : 384 Kbps\nChannel(s)                               : 2 channels\nChannel positions                        : Front: L R\nSampling rate                            : 44.1 KHz\nCompression mode                         : Lossy\nStream size                              : 288 MiB (37%)\nLanguage                                 : English\nDefault                                  : Yes\nForced                                   : No\n\n[img]http://s27.postimg.org/xevrpanqb/vlcsnap_2015_08_13_22h08m39s214.jpg[/img]\n[img]http://s27.postimg.org/xsx3ow7tv/vlcsnap_2015_08_13_22h08m59s335.jpg[/img]\n[img]http://s27.postimg.org/sis4xlnkz/vlcsnap_2015_08_13_22h09m18s329.jpg[/img] \n\nGREETS: Hive-CM8, RTN, \n \n[img]http://s17.postimg.org/r1iiyw8yn/Untitled_1.png[/img][/center]","torrent":{"xt":"urn:btih:0f39ac72165ceba81aec474ca6243980fb67d190","amp;dn":"Bullish.2013.HDRip.x264.AC3-MenaceIISociety","amp;tr":["udp%3A%2F%2Ftracker.openbittorrent.com%3A80","udp%3A%2F%2Fopen.demonii.com%3A1337","udp%3A%2F%2Ftracker.coppersurfer.tk%3A6969","udp%3A%2F%2Fexodus.desync.com%3A6969"],"infoHash":"0f39ac72165ceba81aec474ca6243980fb67d190","infoHashBuffer":{"type":"Buffer","data":[15,57,172,114,22,92,235,168,26,236,71,76,166,36,57,128,251,103,209,144]},"announce":[],"urlList":[]}}